<svg width="829" height="543" xmlns="http://www.w3.org/2000/svg" xmlns:xlink="http://www.w3.org/1999/xlink" xml:space="preserve" overflow="hidden"><defs><filter id="fx0" x="-10%" y="-10%" width="120%" height="120%" filterUnits="userSpaceOnUse" primitiveUnits="userSpaceOnUse"><feComponentTransfer color-interpolation-filters="sRGB"><feFuncR type="discrete" tableValues="0 0"/><feFuncG type="discrete" tableValues="0 0"/><feFuncB type="discrete" tableValues="0 0"/><feFuncA type="linear" slope="0.4" intercept="0"/></feComponentTransfer><feGaussianBlur stdDeviation="3.70452 3.70452"/></filter><clipPath id="clip1"><rect x="2006" y="1104" width="829" height="543"/></clipPath><clipPath id="clip2"><rect x="145" y="134" width="541" height="209"/></clipPath></defs><g clip-path="url(#clip1)" transform="translate(-2006 -1104)"><g clip-path="url(#clip2)" filter="url(#fx0)" transform="translate(2005 1102)"><g><path d="M69.1445 0 69.1445-75.1992 0.726562-177.523 29.3047-177.523 64.3008-124C70.7591-113.99 76.7734-103.979 82.3437-93.9687 87.6719-103.253 94.1302-113.707 101.719-125.332L136.109-177.523 163.477-177.523 92.6367-75.1992 92.6367 0ZM184.859 0 184.859-177.523 208.352-177.523 208.352-104.625 300.625-104.625 300.625-177.523 324.117-177.523 324.117 0 300.625 0 300.625-83.6758 208.352-83.6758 208.352 0ZM361.914 0 361.914-177.523 385.406-177.523 385.406-89.4883 473.562-177.523 505.41-177.523 430.937-105.594 508.68 0 477.68 0 414.469-89.8516 385.406-61.5156 385.406 0Z" transform="matrix(1 0 0 1 161.034 328)"/></g></g><text font-family="Arial,Arial_MSFontService,sans-serif" font-weight="400" font-size="248" transform="matrix(1 0 0 1 2162.08 1427)">YHK</text><path d="M2343.32 1228.85 2343.32 1172.5 2695.5 1172.5 2695.5 1506.5 2341.5 1506.5 2341.5 1448.08 2341.5 1447.4" stroke="#FF7722" stroke-width="20.625" stroke-miterlimit="8" fill="none" fill-rule="evenodd"/></g></svg>